HIERARCHY
ROOT Hips
{
	OFFSET	0.000000	0.000000	0.000000
	CHANNELS 6 Xposition Yposition Zposition Zrotation Xrotation Yrotation
	JOINT LeftHip
	{
		OFFSET	4.740440	-3.195970	-0.322709
		CHANNELS 3 Zrotation Xrotation Yrotation
		JOINT LeftKnee
		{
			OFFSET	-1.605680	-15.592300	1.005510
			CHANNELS 3 Zrotation Xrotation Yrotation
			JOINT LeftAnkle
			{
				OFFSET	-0.632401	-16.421000	-1.413730
				CHANNELS 3 Zrotation Xrotation Yrotation
				End Site
				{
					OFFSET	0.008423	-3.933000	-1.776750
				}
			}
		}
	}
	JOINT RightHip
	{
		OFFSET	-4.740440	-3.195970	-0.322709
		CHANNELS 3 Zrotation Xrotation Yrotation
		JOINT RightKnee
		{
			OFFSET	1.605680	-15.592300	1.005510
			CHANNELS 3 Zrotation Xrotation Yrotation
			JOINT RightAnkle
			{
				OFFSET	0.632401	-16.421000	-1.413730
				CHANNELS 3 Zrotation Xrotation Yrotation
				End Site
				{
					OFFSET	-0.008423	-3.933000	-1.776750
				}
			}
		}
	}
	JOINT Chest
	{
		OFFSET	0.000000	3.468200	0.078401
		CHANNELS 3 Zrotation Xrotation Yrotation
		JOINT LeftCollar
		{
			OFFSET	3.857650	15.070700	-0.011583
			CHANNELS 3 Zrotation Xrotation Yrotation
			JOINT LeftShoulder
			{
				OFFSET	3.979720	-1.940530	-0.165223
				CHANNELS 3 Zrotation Xrotation Yrotation
				JOINT LeftElbow
				{
					OFFSET	0.615844	-10.986600	-0.673886
					CHANNELS 3 Zrotation Xrotation Yrotation
					JOINT LeftWrist
					{
						OFFSET	0.826843	-10.854500	1.034220
						CHANNELS 3 Zrotation Xrotation Yrotation
						End Site
						{
							OFFSET	-1.679080	-8.456540	0.936217
						}
					}
				}
			}
		}
		JOINT RightCollar
		{
			OFFSET	-3.857650	15.070700	-0.011583
			CHANNELS 3 Zrotation Xrotation Yrotation
			JOINT RightShoulder
			{
				OFFSET	-3.979720	-1.940530	-0.165223
				CHANNELS 3 Zrotation Xrotation Yrotation
				JOINT RightElbow
				{
					OFFSET	-0.615845	-10.986600	-0.673886
					CHANNELS 3 Zrotation Xrotation Yrotation
					JOINT RightWrist
					{
						OFFSET	-0.826843	-10.854500	1.034220
						CHANNELS 3 Zrotation Xrotation Yrotation
						End Site
						{
							OFFSET	1.679080	-8.456540	0.936217
						}
					}
				}
			}
		}
		JOINT Neck
		{
			OFFSET	0.000000	15.101400	0.055730
			CHANNELS 3 Zrotation Xrotation Yrotation
			JOINT Head
			{
				OFFSET	0.000000	4.185120	1.488260
				CHANNELS 3 Zrotation Xrotation Yrotation
				End Site
				{
					OFFSET	0.000000	7.773420	-0.106016
				}
			}
		}
	}
}
MOTION
Frames:     6
Frame Time: 0.016667
-3.073998	37.983868	-6.762142	-3.373524	-16.267708	-30.081745	11.072919	9.227989	9.930182	-9.786972	24.746851	19.437519	-6.808761	-11.850703	4.805681	-22.617397	-2.737916	-13.108727	3.633280	16.288902	-5.145094	8.096468	6.558977	3.418788	3.021251	18.294037	-10.946366	-1.888099	-9.419279	-2.398220	-8.911810	-11.148972	-9.296495	70.383865	-98.828995	85.302658	46.593319	7.269205	-12.172559	-15.031712	-2.379239	-0.146830	7.457022	-8.269510	11.315511	-66.422653	-109.503128	-66.767586	-2.080370	4.438218	17.467604	-0.267905	-1.244961	0.731120	-7.776556	14.691428	10.548125	
-3.108052	37.978577	-6.738221	-3.616100	-16.257883	-31.499792	10.976900	9.607883	10.515578	-9.748664	24.889608	19.870626	-7.045011	-12.072027	5.031139	-22.374815	-3.266736	-12.455960	3.620186	16.403843	-4.648435	7.940491	6.600109	3.509801	3.065607	18.567196	-11.031522	-1.941695	-9.265611	-2.878887	-9.318690	-10.934525	-9.202266	63.764229	-99.075394	77.701584	46.186279	6.259681	-12.627632	-15.212244	-2.489652	-0.269213	7.004226	-7.725145	9.826632	-66.452278	-110.173309	-66.117958	-1.238624	2.476285	15.903353	-0.182644	-1.283293	1.252064	-7.971607	14.302587	10.898265	
-3.105388	37.963074	-6.771801	-3.644862	-16.200212	-31.938498	10.922834	9.671056	10.659714	-9.734869	24.935568	20.062717	-7.144242	-12.143007	5.108584	-22.338181	-3.586348	-12.720782	3.592032	16.537649	-4.142592	7.808765	6.636170	3.616771	3.064278	18.538906	-11.350785	-1.911309	-9.266270	-2.782342	-9.347970	-10.925382	-9.074598	63.285610	-99.338333	77.074234	46.167656	6.029610	-12.688761	-15.266387	-2.588755	-0.257877	6.929525	-7.673012	9.624925	-67.024513	-110.271088	-66.488281	-1.167895	1.907176	15.476760	0.074774	-1.018310	1.025699	-8.492437	14.039565	11.738034	
-3.152195	37.965759	-6.746240	-3.712421	-16.074810	-33.298409	10.774590	9.930510	10.972551	-9.845026	24.958038	20.864450	-7.422063	-12.321074	5.261593	-22.183636	-4.260180	-12.119615	3.634461	16.637064	-3.675092	7.636207	6.679794	3.713155	2.852496	18.721018	-11.969633	-1.740229	-9.841316	-2.889094	-9.007483	-10.970846	-8.645744	66.243851	-99.304871	80.030174	46.032974	5.841423	-12.808698	-15.156480	-3.351620	-0.409024	6.777183	-7.806294	9.463359	-69.899818	-110.156700	-69.239105	-1.757910	1.316590	14.869399	0.305662	-0.827153	1.847972	-9.087708	14.369081	12.725201	
-3.163735	37.960171	-6.755714	-3.799253	-16.090137	-33.785206	10.714152	10.088492	11.016747	-9.854098	24.943512	21.189125	-7.523832	-12.373821	5.325798	-22.103518	-4.443392	-11.979502	3.639107	16.699347	-3.431614	7.569449	6.696795	3.753915	2.722140	18.814627	-12.115935	-1.648173	-10.039331	-2.963303	-8.847678	-11.028833	-8.553002	68.705666	-98.982956	82.630959	45.910004	5.911396	-12.787550	-15.033116	-3.566451	-0.461964	6.760582	-7.972219	9.611800	-71.014069	-109.959930	-70.453392	-2.075248	1.494432	14.881881	0.465455	-0.634635	1.860131	-9.376714	14.419344	13.282237	
-3.188096	37.943417	-6.750696	-4.152227	-16.152420	-35.255417	10.590558	10.551913	11.093457	-9.929070	25.029778	22.212540	-7.794158	-12.577631	5.507369	-21.830885	-4.851824	-11.565165	3.656837	16.840572	-2.663213	7.349259	6.749583	3.882347	2.349326	18.807543	-12.296175	-1.484432	-10.201779	-3.331949	-8.700428	-11.282542	-8.498309	-102.491379	-82.028908	-87.988472	45.422112	6.704862	-12.826925	-14.562064	-3.715479	-0.620567	6.837714	-8.406220	10.270891	-73.173416	-109.000519	-72.862144	-2.671561	2.901895	15.461946	0.895930	-0.053446	2.033585	-10.160271	14.765058	14.738409	
